<?xml version="1.0" standalone="no"?>
<!DOCTYPE svg PUBLIC "-//W3C//DTD SVG 20010904//EN"
 "http://www.w3.org/TR/2001/REC-SVG-20010904/DTD/svg10.dtd">
<svg version="1.0" xmlns="http://www.w3.org/2000/svg"
 width="392.000000pt" height="264.000000pt" viewBox="0 0 392.000000 264.000000"
 preserveAspectRatio="xMidYMid meet">

<g transform="translate(0.000000,264.000000) scale(0.100000,-0.100000)"
fill="#000000" stroke="none">
<path d="M940 2350 c0 -5 14 -10 30 -10 17 0 30 5 30 10 0 6 -13 10 -30 10
-16 0 -30 -4 -30 -10z"/>
<path d="M1060 2350 c0 -5 14 -10 30 -10 17 0 30 5 30 10 0 6 -13 10 -30 10
-16 0 -30 -4 -30 -10z"/>
<path d="M1180 2350 c0 -5 14 -10 30 -10 17 0 30 5 30 10 0 6 -13 10 -30 10
-16 0 -30 -4 -30 -10z"/>
<path d="M2500 2350 c0 -5 14 -10 30 -10 17 0 30 5 30 10 0 6 -13 10 -30 10
-16 0 -30 -4 -30 -10z"/>
<path d="M2620 2350 c0 -5 14 -10 30 -10 17 0 30 5 30 10 0 6 -13 10 -30 10
-16 0 -30 -4 -30 -10z"/>
<path d="M2740 2350 c0 -5 14 -10 30 -10 17 0 30 5 30 10 0 6 -13 10 -30 10
-16 0 -30 -4 -30 -10z"/>
<path d="M2860 2350 c0 -5 14 -10 30 -10 17 0 30 5 30 10 0 6 -13 10 -30 10
-16 0 -30 -4 -30 -10z"/>
<path d="M2980 2350 c0 -5 14 -10 30 -10 17 0 30 5 30 10 0 6 -13 10 -30 10
-16 0 -30 -4 -30 -10z"/>
<path d="M3100 2350 c0 -5 14 -10 30 -10 17 0 30 5 30 10 0 6 -13 10 -30 10
-16 0 -30 -4 -30 -10z"/>
<path d="M3220 2350 c0 -5 14 -10 30 -10 17 0 30 5 30 10 0 6 -13 10 -30 10
-16 0 -30 -4 -30 -10z"/>
<path d="M3340 2350 c0 -5 14 -10 30 -10 17 0 30 5 30 10 0 6 -13 10 -30 10
-16 0 -30 -4 -30 -10z"/>
<path d="M3460 2350 c0 -5 14 -10 30 -10 17 0 30 5 30 10 0 6 -13 10 -30 10
-16 0 -30 -4 -30 -10z"/>
<path d="M3580 2350 c0 -5 14 -10 30 -10 17 0 30 5 30 10 0 6 -13 10 -30 10
-16 0 -30 -4 -30 -10z"/>
<path d="M3700 2350 c0 -5 14 -10 30 -10 17 0 30 5 30 10 0 6 -13 10 -30 10
-16 0 -30 -4 -30 -10z"/>
<path d="M835 2311 c-7 -12 12 -24 25 -16 11 7 4 25 -10 25 -5 0 -11 -4 -15
-9z"/>
<path d="M1315 2311 c-7 -12 12 -24 25 -16 11 7 4 25 -10 25 -5 0 -11 -4 -15
-9z"/>
<path d="M2395 2311 c-7 -12 12 -24 25 -16 11 7 4 25 -10 25 -5 0 -11 -4 -15
-9z"/>
<path d="M719 2105 c-21 -47 -33 -85 -28 -85 6 0 23 28 38 63 36 79 45 107 34
107 -4 0 -24 -39 -44 -85z"/>
<path d="M1413 2178 c32 -79 72 -158 78 -158 5 0 -7 36 -26 81 -19 44 -35 83
-35 85 0 2 -5 4 -11 4 -6 0 -9 -6 -6 -12z"/>
<path d="M2279 2105 c-21 -47 -33 -85 -28 -85 6 0 23 28 38 63 36 79 45 107
34 107 -4 0 -24 -39 -44 -85z"/>
<path d="M2860 2100 c0 -5 14 -10 30 -10 17 0 30 5 30 10 0 6 -13 10 -30 10
-16 0 -30 -4 -30 -10z"/>
<path d="M2980 2100 c0 -5 14 -10 30 -10 17 0 30 5 30 10 0 6 -13 10 -30 10
-16 0 -30 -4 -30 -10z"/>
<path d="M3100 2100 c0 -5 14 -10 30 -10 17 0 30 5 30 10 0 6 -13 10 -30 10
-16 0 -30 -4 -30 -10z"/>
<path d="M3220 2100 c0 -5 14 -10 30 -10 17 0 30 5 30 10 0 6 -13 10 -30 10
-16 0 -30 -4 -30 -10z"/>
<path d="M3340 2100 c0 -5 14 -10 30 -10 17 0 30 5 30 10 0 6 -13 10 -30 10
-16 0 -30 -4 -30 -10z"/>
<path d="M3460 2100 c0 -5 14 -10 30 -10 17 0 30 5 30 10 0 6 -13 10 -30 10
-16 0 -30 -4 -30 -10z"/>
<path d="M1750 2010 c0 -6 47 -10 120 -10 73 0 120 4 120 10 0 6 -47 10 -120
10 -73 0 -120 -4 -120 -10z"/>
<path d="M1697 1932 c-44 -48 -42 -126 3 -167 25 -23 25 -14 0 27 -25 42 -25
74 1 117 23 38 21 50 -4 23z"/>
<path d="M2020 1948 c0 -4 10 -23 21 -43 24 -41 21 -95 -7 -126 -10 -11 -15
-22 -12 -25 8 -7 47 45 54 73 9 33 -2 68 -31 100 -13 15 -25 25 -25 21z"/>
<path d="M599 1855 c-21 -47 -33 -85 -28 -85 6 0 23 28 38 63 36 79 45 107 34
107 -4 0 -24 -39 -44 -85z"/>
<path d="M839 1855 c-21 -47 -33 -85 -28 -85 6 0 23 28 38 63 36 79 45 107 34
107 -4 0 -24 -39 -44 -85z"/>
<path d="M1533 1928 c32 -79 72 -158 78 -158 5 0 -7 36 -26 81 -19 44 -35 83
-35 85 0 2 -5 4 -11 4 -6 0 -9 -6 -6 -12z"/>
<path d="M2159 1855 c-21 -47 -33 -85 -28 -85 6 0 23 28 38 63 36 79 45 107
34 107 -4 0 -24 -39 -44 -85z"/>
<path d="M2740 1850 c0 -5 14 -10 30 -10 17 0 30 5 30 10 0 6 -13 10 -30 10
-16 0 -30 -4 -30 -10z"/>
<path d="M2860 1850 c0 -5 14 -10 30 -10 17 0 30 5 30 10 0 6 -13 10 -30 10
-16 0 -30 -4 -30 -10z"/>
<path d="M2980 1850 c0 -5 14 -10 30 -10 17 0 30 5 30 10 0 6 -13 10 -30 10
-16 0 -30 -4 -30 -10z"/>
<path d="M3100 1850 c0 -5 14 -10 30 -10 17 0 30 5 30 10 0 6 -13 10 -30 10
-16 0 -30 -4 -30 -10z"/>
<path d="M3220 1850 c0 -5 14 -10 30 -10 17 0 30 5 30 10 0 6 -13 10 -30 10
-16 0 -30 -4 -30 -10z"/>
<path d="M2146 1685 c25 -19 40 -19 24 0 -7 8 -20 15 -28 15 -13 0 -12 -3 4
-15z"/>
<path d="M479 1605 c-21 -47 -33 -85 -28 -85 6 0 23 28 38 63 36 79 45 107 34
107 -4 0 -24 -39 -44 -85z"/>
<path d="M599 1605 c-21 -47 -33 -85 -28 -85 6 0 23 28 38 63 36 79 45 107 34
107 -4 0 -24 -39 -44 -85z"/>
<path d="M719 1605 c-21 -47 -33 -85 -28 -85 6 0 23 28 38 63 36 79 45 107 34
107 -4 0 -24 -39 -44 -85z"/>
<path d="M839 1605 c-21 -47 -33 -85 -28 -85 6 0 23 28 38 63 36 79 45 107 34
107 -4 0 -24 -39 -44 -85z"/>
<path d="M959 1605 c-21 -47 -33 -85 -28 -85 6 0 23 28 38 63 36 79 45 107 34
107 -4 0 -24 -39 -44 -85z"/>
<path d="M1079 1605 c-21 -47 -33 -85 -28 -85 6 0 23 28 38 63 36 79 45 107
34 107 -4 0 -24 -39 -44 -85z"/>
<path d="M1560 1665 c0 -14 5 -25 10 -25 6 0 10 11 10 25 0 14 -4 25 -10 25
-5 0 -10 -11 -10 -25z"/>
<path d="M1773 1678 c32 -79 72 -158 78 -158 5 0 -7 36 -26 81 -19 44 -35 83
-35 85 0 2 -5 4 -11 4 -6 0 -9 -6 -6 -12z"/>
<path d="M1919 1605 c-21 -47 -33 -85 -28 -85 6 0 23 28 38 63 36 79 45 107
34 107 -4 0 -24 -39 -44 -85z"/>
<path d="M2620 1600 c0 -5 14 -10 30 -10 17 0 30 5 30 10 0 6 -13 10 -30 10
-16 0 -30 -4 -30 -10z"/>
<path d="M2740 1600 c0 -5 14 -10 30 -10 17 0 30 5 30 10 0 6 -13 10 -30 10
-16 0 -30 -4 -30 -10z"/>
<path d="M2860 1600 c0 -5 14 -10 30 -10 17 0 30 5 30 10 0 6 -13 10 -30 10
-16 0 -30 -4 -30 -10z"/>
<path d="M359 1355 c-21 -47 -33 -85 -28 -85 6 0 23 28 38 63 36 79 45 107 34
107 -4 0 -24 -39 -44 -85z"/>
<path d="M479 1355 c-21 -47 -33 -85 -28 -85 6 0 23 28 38 63 36 79 45 107 34
107 -4 0 -24 -39 -44 -85z"/>
<path d="M599 1355 c-21 -47 -33 -85 -28 -85 6 0 23 28 38 63 36 79 45 107 34
107 -4 0 -24 -39 -44 -85z"/>
<path d="M719 1355 c-21 -47 -33 -85 -28 -85 6 0 23 28 38 63 36 79 45 107 34
107 -4 0 -24 -39 -44 -85z"/>
<path d="M959 1355 c-21 -47 -33 -85 -28 -85 6 0 23 28 38 63 36 79 45 107 34
107 -4 0 -24 -39 -44 -85z"/>
<path d="M1199 1355 c-21 -47 -33 -85 -28 -85 6 0 23 28 38 63 36 79 45 107
34 107 -4 0 -24 -39 -44 -85z"/>
<path d="M1319 1355 c-21 -47 -33 -85 -28 -85 6 0 23 28 38 63 36 79 45 107
34 107 -4 0 -24 -39 -44 -85z"/>
<path d="M1555 1391 c-7 -12 12 -24 25 -16 11 7 4 25 -10 25 -5 0 -11 -4 -15
-9z"/>
<path d="M2155 1391 c-7 -12 12 -24 25 -16 11 7 4 25 -10 25 -5 0 -11 -4 -15
-9z"/>
<path d="M2380 1350 c0 -5 14 -10 30 -10 17 0 30 5 30 10 0 6 -13 10 -30 10
-16 0 -30 -4 -30 -10z"/>
<path d="M2500 1350 c0 -5 14 -10 30 -10 17 0 30 5 30 10 0 6 -13 10 -30 10
-16 0 -30 -4 -30 -10z"/>
<path d="M2620 1350 c0 -5 14 -10 30 -10 17 0 30 5 30 10 0 6 -13 10 -30 10
-16 0 -30 -4 -30 -10z"/>
<path d="M1555 1311 c-7 -12 12 -24 25 -16 11 7 4 25 -10 25 -5 0 -11 -4 -15
-9z"/>
<path d="M2155 1311 c-7 -12 12 -24 25 -16 11 7 4 25 -10 25 -5 0 -11 -4 -15
-9z"/>
<path d="M1546 1185 c25 -19 40 -19 24 0 -7 8 -20 15 -28 15 -13 0 -12 -3 4
-15z"/>
<path d="M239 1105 c-21 -47 -33 -85 -28 -85 6 0 23 28 38 63 36 79 45 107 34
107 -4 0 -24 -39 -44 -85z"/>
<path d="M359 1105 c-21 -47 -33 -85 -28 -85 6 0 23 28 38 63 36 79 45 107 34
107 -4 0 -24 -39 -44 -85z"/>
<path d="M599 1105 c-21 -47 -33 -85 -28 -85 6 0 23 28 38 63 36 79 45 107 34
107 -4 0 -24 -39 -44 -85z"/>
<path d="M1079 1105 c-21 -47 -33 -85 -28 -85 6 0 23 28 38 63 36 79 45 107
34 107 -4 0 -24 -39 -44 -85z"/>
<path d="M1439 1105 c-21 -47 -33 -85 -28 -85 6 0 23 28 38 63 36 79 45 107
34 107 -4 0 -24 -39 -44 -85z"/>
<path d="M2160 1165 c0 -14 5 -25 10 -25 6 0 10 11 10 25 0 14 -4 25 -10 25
-5 0 -10 -11 -10 -25z"/>
<path d="M2260 1100 c0 -5 14 -10 30 -10 17 0 30 5 30 10 0 6 -13 10 -30 10
-16 0 -30 -4 -30 -10z"/>
<path d="M2380 1100 c0 -5 14 -10 30 -10 17 0 30 5 30 10 0 6 -13 10 -30 10
-16 0 -30 -4 -30 -10z"/>
<path d="M119 855 c-21 -47 -33 -85 -28 -85 6 0 23 28 38 63 36 79 45 107 34
107 -4 0 -24 -39 -44 -85z"/>
<path d="M239 855 c-21 -47 -33 -85 -28 -85 6 0 23 28 38 63 36 79 45 107 34
107 -4 0 -24 -39 -44 -85z"/>
<path d="M1559 855 c-21 -47 -33 -85 -28 -85 6 0 23 28 38 63 36 79 45 107 34
107 -4 0 -24 -39 -44 -85z"/>
<path d="M1679 855 c-21 -47 -33 -85 -28 -85 6 0 23 28 38 63 36 79 45 107 34
107 -4 0 -24 -39 -44 -85z"/>
<path d="M2013 928 c32 -79 72 -158 78 -158 5 0 -7 36 -26 81 -19 44 -35 83
-35 85 0 2 -5 4 -11 4 -6 0 -9 -6 -6 -12z"/>
<path d="M2133 928 c32 -79 72 -158 78 -158 5 0 -7 36 -26 81 -19 44 -35 83
-35 85 0 2 -5 4 -11 4 -6 0 -9 -6 -6 -12z"/>
<path d="M1795 811 c-7 -12 12 -24 25 -16 11 7 4 25 -10 25 -5 0 -11 -4 -15
-9z"/>
<path d="M1915 811 c-7 -12 12 -24 25 -16 11 7 4 25 -10 25 -5 0 -11 -4 -15
-9z"/>
<path d="M1400 629 c0 -62 13 -89 45 -89 39 0 55 25 55 86 0 72 -18 69 -22 -3
-3 -54 -5 -58 -28 -58 -23 0 -25 4 -28 58 -4 70 -22 76 -22 6z"/>
<path d="M1520 629 c0 -62 13 -89 45 -89 39 0 55 25 55 86 0 72 -18 69 -22 -3
-3 -54 -5 -58 -28 -58 -23 0 -25 4 -28 58 -4 70 -22 76 -22 6z"/>
<path d="M2120 629 c0 -62 13 -89 45 -89 39 0 55 25 55 86 0 72 -18 69 -22 -3
-3 -54 -5 -58 -28 -58 -23 0 -25 4 -28 58 -4 70 -22 76 -22 6z"/>
<path d="M2240 629 c0 -62 13 -89 45 -89 39 0 55 25 55 86 0 72 -18 69 -22 -3
-3 -54 -5 -58 -28 -58 -23 0 -25 4 -28 58 -4 70 -22 76 -22 6z"/>
<path d="M930 620 c0 -5 20 -10 45 -10 25 0 45 5 45 10 0 6 -20 10 -45 10 -25
0 -45 -4 -45 -10z"/>
<path d="M1050 620 c0 -5 20 -10 45 -10 25 0 45 5 45 10 0 6 -20 10 -45 10
-25 0 -45 -4 -45 -10z"/>
<path d="M1170 620 c0 -5 20 -10 45 -10 25 0 45 5 45 10 0 6 -20 10 -45 10
-25 0 -45 -4 -45 -10z"/>
<path d="M1290 620 c0 -5 20 -10 45 -10 25 0 45 5 45 10 0 6 -20 10 -45 10
-25 0 -45 -4 -45 -10z"/>
<path d="M1650 620 c0 -5 20 -10 45 -10 25 0 45 5 45 10 0 6 -20 10 -45 10
-25 0 -45 -4 -45 -10z"/>
<path d="M1770 620 c0 -5 20 -10 45 -10 25 0 45 5 45 10 0 6 -20 10 -45 10
-25 0 -45 -4 -45 -10z"/>
<path d="M1890 620 c0 -5 20 -10 45 -10 25 0 45 5 45 10 0 6 -20 10 -45 10
-25 0 -45 -4 -45 -10z"/>
<path d="M2010 620 c0 -5 20 -10 45 -10 25 0 45 5 45 10 0 6 -20 10 -45 10
-25 0 -45 -4 -45 -10z"/>
<path d="M2370 620 c0 -5 20 -10 45 -10 25 0 45 5 45 10 0 6 -20 10 -45 10
-25 0 -45 -4 -45 -10z"/>
<path d="M2490 620 c0 -5 20 -10 45 -10 25 0 45 5 45 10 0 6 -20 10 -45 10
-25 0 -45 -4 -45 -10z"/>
<path d="M2610 620 c0 -5 20 -10 45 -10 25 0 45 5 45 10 0 6 -20 10 -45 10
-25 0 -45 -4 -45 -10z"/>
<path d="M2730 620 c0 -5 20 -10 45 -10 25 0 45 5 45 10 0 6 -20 10 -45 10
-25 0 -45 -4 -45 -10z"/>
<path d="M930 580 c0 -5 20 -10 45 -10 25 0 45 5 45 10 0 6 -20 10 -45 10 -25
0 -45 -4 -45 -10z"/>
<path d="M1050 580 c0 -5 20 -10 45 -10 25 0 45 5 45 10 0 6 -20 10 -45 10
-25 0 -45 -4 -45 -10z"/>
<path d="M1170 580 c0 -5 20 -10 45 -10 25 0 45 5 45 10 0 6 -20 10 -45 10
-25 0 -45 -4 -45 -10z"/>
<path d="M1290 580 c0 -5 20 -10 45 -10 25 0 45 5 45 10 0 6 -20 10 -45 10
-25 0 -45 -4 -45 -10z"/>
<path d="M1650 580 c0 -5 20 -10 45 -10 25 0 45 5 45 10 0 6 -20 10 -45 10
-25 0 -45 -4 -45 -10z"/>
<path d="M1770 580 c0 -5 20 -10 45 -10 25 0 45 5 45 10 0 6 -20 10 -45 10
-25 0 -45 -4 -45 -10z"/>
<path d="M1890 580 c0 -5 20 -10 45 -10 25 0 45 5 45 10 0 6 -20 10 -45 10
-25 0 -45 -4 -45 -10z"/>
<path d="M2010 580 c0 -5 20 -10 45 -10 25 0 45 5 45 10 0 6 -20 10 -45 10
-25 0 -45 -4 -45 -10z"/>
<path d="M2370 580 c0 -5 20 -10 45 -10 25 0 45 5 45 10 0 6 -20 10 -45 10
-25 0 -45 -4 -45 -10z"/>
<path d="M2490 580 c0 -5 20 -10 45 -10 25 0 45 5 45 10 0 6 -20 10 -45 10
-25 0 -45 -4 -45 -10z"/>
<path d="M2610 580 c0 -5 20 -10 45 -10 25 0 45 5 45 10 0 6 -20 10 -45 10
-25 0 -45 -4 -45 -10z"/>
<path d="M2730 580 c0 -5 20 -10 45 -10 25 0 45 5 45 10 0 6 -20 10 -45 10
-25 0 -45 -4 -45 -10z"/>
<path d="M1800 360 c0 -67 4 -110 10 -110 6 0 10 43 10 110 0 67 -4 110 -10
110 -6 0 -10 -43 -10 -110z"/>
<path d="M1920 360 c0 -67 4 -110 10 -110 6 0 10 43 10 110 0 67 -4 110 -10
110 -6 0 -10 -43 -10 -110z"/>
<path d="M2266 435 c25 -19 40 -19 24 0 -7 8 -20 15 -28 15 -13 0 -12 -3 4
-15z"/>
<path d="M1440 415 c0 -14 5 -25 10 -25 6 0 10 11 10 25 0 14 -4 25 -10 25 -5
0 -10 -11 -10 -25z"/>
<path d="M1559 355 c-21 -47 -33 -85 -28 -85 6 0 23 28 38 63 36 79 45 107 34
107 -4 0 -24 -39 -44 -85z"/>
<path d="M1679 355 c-21 -47 -33 -85 -28 -85 6 0 23 28 38 63 36 79 45 107 34
107 -4 0 -24 -39 -44 -85z"/>
<path d="M2013 428 c32 -79 72 -158 78 -158 5 0 -7 36 -26 81 -19 44 -35 83
-35 85 0 2 -5 4 -11 4 -6 0 -9 -6 -6 -12z"/>
<path d="M2133 428 c32 -79 72 -158 78 -158 5 0 -7 36 -26 81 -19 44 -35 83
-35 85 0 2 -5 4 -11 4 -6 0 -9 -6 -6 -12z"/>
<path d="M1906 185 c25 -19 40 -19 24 0 -7 8 -20 15 -28 15 -13 0 -12 -3 4
-15z"/>
<path d="M2026 185 c25 -19 40 -19 24 0 -7 8 -20 15 -28 15 -13 0 -12 -3 4
-15z"/>
<path d="M1680 165 c0 -14 5 -25 10 -25 6 0 10 11 10 25 0 14 -4 25 -10 25 -5
0 -10 -11 -10 -25z"/>
<path d="M1800 165 c0 -14 5 -25 10 -25 6 0 10 11 10 25 0 14 -4 25 -10 25 -5
0 -10 -11 -10 -25z"/>
</g>
</svg>
